# xmcd
#
# Track frame offsets: 
#        150
#        8963
#        20538
#        31836
#        44783
#        57246
#        68985
#        80214
#        92914
#        104309
#        124010
#        137555
#        150556
#        163089
#        174598
#        185660
#        196265
#        207504
#        218123
#        232531
#        247732
#        257585
#        269072
#        279037
#        289196
#        302036
#        313285
#
# Disc length: 4435 seconds
#
# Revision: 0
# Processed by: cddbd v1.5.2PL0 Copyright (c) Steve Scherf et al.
# Submitted via: ExactAudioCopy v0.99pb4
#
DISCID=8711511b
DTITLE=Various Artist - Ol' Virginia Soul Part 2
DYEAR=1900
DGENRE=Soul
TTITLE0=Earl Carter and the Fantastic 6 - Shake Your Po' Po' 
TTITLE1=Sir Guy - Funky Virginia
TTITLE2=Sir Guy - My Sweet Baby
TTITLE3=Prince George - Wrong Crowd
TTITLE4=The Idets - Doggie in the Window
TTITLE5=The Anglos - Small Town Boy
TTITLE6=Art Ensley and The Fabulous ECHOS Band - Open the Door to Your H
TTITLE6=eart
TTITLE7=Ida Sands - You'll Lose a Good Thing
TTITLE8=Wilson Williams - Ain't That Loving You
TTITLE9=Wilson Williams - I've Got a Whole Lot To Be Thankful For
TTITLE10=Barbara Stant - My Mind Holds On To Yesterday
TTITLE11=The Sheepherders - If Ever You Need Me
TTITLE12=Elsie Strong - This is The Last Time
TTITLE13=The Regents - What 'Cha Gonna Do
TTITLE14=The Blue Eyed Soul - Are You Ready For This?
TTITLE15=The Deadbeats - No Second Chance
TTITLE16=The Deadbeats - Why Did You
TTITLE17=King Edward and His BDs - Workin' For My Baby
TTITLE18=Bernard Smith - Never Gonna Let You Go
TTITLE19=Bernard Smith - Man Without a People
TTITLE20=Laurie Tate - Please Tell Me
TTITLE21=The Untouchables - Find a New Love
TTITLE22=Jay Griffin - Lucky Me
TTITLE23=William Cummings - Make My Love a Hurting Thing
TTITLE24=William Cummings - Your Soul Searchin Love
TTITLE25=Zeke and the Soul Setters - Make My Love a Hurtin Thing
TTITLE26=Rickey and The Impressionables Band - Baco Walk Part 1
EXTD=
EXTT0=
EXTT1=
EXTT2=
EXTT3=
EXTT4=
EXTT5=
EXTT6=
EXTT7=
EXTT8=
EXTT9=
EXTT10=
EXTT11=
EXTT12=
EXTT13=
EXTT14=
EXTT15=
EXTT16=
EXTT17=
EXTT18=
EXTT19=
EXTT20=
EXTT21=
EXTT22=
EXTT23=
EXTT24=
EXTT25=
EXTT26=
PLAYORDER=
